<svg xmlns="http://www.w3.org/2000/svg" width="156" height="66" viewBox="0 0 156 66" fill="none"><path fill-rule="evenodd" clip-rule="evenodd" d="M60.9636 42.1806H60.1387V39.2285C60.1387 39.0327 59.9811 38.8722 59.7855 38.8722H56.8402C56.6468 38.8722 56.487 39.0321 56.487 39.2285V40.9999C56.487 41.1941 56.6468 41.3537 56.8402 41.3537H59.3134V42.1806H56.8402C56.1928 42.1806 55.6621 41.6489 55.6621 40.9996V39.2282C55.6621 38.577 56.1925 38.0469 56.8402 38.0469H59.7855C60.4332 38.0469 60.9636 38.5764 60.9636 39.2282V42.1803V42.1806Z" fill="#231F1F"></path><path fill-rule="evenodd" clip-rule="evenodd" d="M82.9275 42.1456V41.3321H79.2896C79.0974 41.3321 78.9405 41.1745 78.9405 40.9843V39.2417C78.9405 39.049 79.0974 38.8914 79.2896 38.8914H82.9275V38.0801H79.2896C78.6507 38.0801 78.1309 38.6008 78.1309 39.2417V40.9843C78.1309 41.6224 78.6507 42.1459 79.2896 42.1459H82.9275V42.1456Z" fill="#231F1F"></path><path fill-rule="evenodd" clip-rule="evenodd" d="M104.134 42.1456V41.3321H100.496C100.304 41.3321 100.147 41.1745 100.147 40.9843V39.2417C100.147 39.049 100.304 38.8914 100.496 38.8914H104.134V38.0801H100.496C99.857 38.0801 99.3369 38.6008 99.3369 39.2417V40.9843C99.3369 41.6224 99.857 42.1459 100.496 42.1459H104.134V42.1456Z" fill="#231F1F"></path><path fill-rule="evenodd" clip-rule="evenodd" d="M30.7358 39.2282C30.7358 39.0321 30.8931 38.8716 31.089 38.8716H34.0341C34.2275 38.8716 34.3873 39.0317 34.3873 39.2282V39.6992H31.5612V40.5261H35.2128V39.2282C35.2128 38.5767 34.6821 38.0469 34.0344 38.0469H31.0893C30.4416 38.0469 29.9111 38.5764 29.9111 39.2282V40.9996C29.9111 41.6486 30.4416 42.1806 31.0893 42.1806H34.3876V41.3537H31.0893C30.8939 41.3537 30.7362 41.1935 30.7362 40.9999V39.2285L30.7358 39.2282Z" fill="#231F1F"></path><path fill-rule="evenodd" clip-rule="evenodd" d="M72.644 39.2282C72.644 39.0321 72.8012 38.8716 72.9971 38.8716H75.9424C76.1359 38.8716 76.2956 39.0317 76.2956 39.2282V39.6992H73.4695V40.5261H77.1208V39.2282C77.1208 38.5767 76.5904 38.0469 75.9427 38.0469H72.9974C72.3497 38.0469 71.8193 38.5764 71.8193 39.2282V40.9996C71.8193 41.6486 72.3497 42.1806 72.9974 42.1806H76.2959V41.3537H72.9974C72.8021 41.3537 72.6443 41.1935 72.6443 40.9999V39.2285L72.644 39.2282Z" fill="#231F1F"></path><path fill-rule="evenodd" clip-rule="evenodd" d="M93.8513 39.2282C93.8513 39.0321 94.0085 38.8716 94.2042 38.8716H97.1494C97.3429 38.8716 97.5026 39.0317 97.5026 39.2282V39.6992H94.6765V40.5261H98.3282V39.2282C98.3282 38.5767 97.7975 38.0469 97.1498 38.0469H94.2048C93.5571 38.0469 93.0264 38.5764 93.0264 39.2282V40.9996C93.0264 41.6486 93.5571 42.1806 94.2048 42.1806H97.5029V41.3537H94.2048C94.0092 41.3537 93.8516 41.1935 93.8516 40.9999V39.2285L93.8513 39.2282Z" fill="#231F1F"></path><path fill-rule="evenodd" clip-rule="evenodd" d="M139.546 39.2282C139.546 39.0321 139.703 38.8716 139.899 38.8716H142.844C143.037 38.8716 143.197 39.0317 143.197 39.2282V39.6992H140.371V40.5261H144.023V39.2282C144.023 38.5767 143.492 38.0469 142.844 38.0469H139.899C139.251 38.0469 138.721 38.5764 138.721 39.2282V40.9996C138.721 41.6486 139.251 42.1806 139.899 42.1806H143.197V41.3537H139.899C139.703 41.3537 139.546 41.1935 139.546 40.9999V39.2285L139.546 39.2282Z" fill="#231F1F"></path><path fill-rule="evenodd" clip-rule="evenodd" d="M5.92773 42.3451H6.76736V39.0349H8.32093V38.2098H6.76736V37.7363C6.76736 37.5421 6.92982 37.3819 7.12672 37.3819H8.95722V36.5547H7.12672C6.46759 36.5547 5.92773 37.0867 5.92773 37.7363V42.3451Z" fill="#231F1F"></path><path fill-rule="evenodd" clip-rule="evenodd" d="M135.119 39.2929C135.119 39.0968 134.962 38.9364 134.766 38.9364H131.821C131.627 38.9364 131.468 39.0965 131.468 39.2929V41.0644C131.468 41.2583 131.627 41.4178 131.821 41.4178H134.296V42.2447H131.821C131.174 42.2447 130.643 41.713 130.643 41.0638V39.2926C130.643 38.6411 131.173 38.1113 131.821 38.1113H134.766C135.413 38.1113 135.944 38.6408 135.944 39.2926V42.7154C135.944 43.3647 135.414 43.8964 134.766 43.8964H132.293V43.0695H134.766C134.962 43.0695 135.119 42.9118 135.119 42.7154V39.2929Z" fill="#231F1F"></path><path fill-rule="evenodd" clip-rule="evenodd" d="M105.144 36.387H105.953V38.0096H108.785C109.42 38.0096 109.94 38.5288 109.94 39.1681V42.0639H109.131V39.1681C109.131 38.976 108.974 38.8184 108.785 38.8184H105.953V42.0639H105.144V36.3867V36.387Z" fill="#231F1F"></path><path fill-rule="evenodd" clip-rule="evenodd" d="M136.954 38.0516H137.712V41.9183H136.954V38.0516ZM136.954 37.2926H137.712V36.5332H136.954V37.2926Z" fill="#231F1F"></path><path d="M42.7865 36.5684H42.0293V41.8815H42.7865V36.5684Z" fill="#231F1F"></path><path d="M62.7309 36.5684H61.9736V41.8815H62.7309V36.5684Z" fill="#231F1F"></path><path d="M64.4984 36.3145H63.7412V42.1349H64.4984V36.3145Z" fill="#231F1F"></path><path d="M123.574 36.3145H122.816V42.1349H123.574V36.3145Z" fill="#231F1F"></path><path fill-rule="evenodd" clip-rule="evenodd" d="M21.8334 38.1133H27.7618C28.3885 38.1133 28.9018 38.6256 28.9018 39.2561V42.1128H28.1035V39.2561C28.1035 39.0666 27.949 38.9111 27.7618 38.9111H25.7145C25.7472 39.0203 25.7666 39.136 25.7666 39.2561V42.1128H24.9682V39.2561C24.9682 39.0666 24.8137 38.9111 24.6265 38.9111H22.6314V42.1128H21.833V38.1133H21.8334Z" fill="#231F1F"></path><path fill-rule="evenodd" clip-rule="evenodd" d="M110.95 38.0859H114.591C115.226 38.0859 115.747 38.6054 115.747 39.2444V42.1402H114.938V39.2444C114.938 39.0524 114.781 38.895 114.591 38.895H111.76V42.1402H110.95V38.0859Z" fill="#231F1F"></path><path fill-rule="evenodd" clip-rule="evenodd" d="M13.8949 38.8699C14.0792 38.8699 14.2308 39.0259 14.2308 39.217V40.9435C14.2308 41.1324 14.0788 41.2881 13.8949 41.2881H11.0898C10.9037 41.2881 10.7535 41.1321 10.7535 40.9435V39.217C10.7535 39.0263 10.9033 38.8699 11.0898 38.8699H13.8949ZM13.8949 38.0664H11.0898C10.473 38.0664 9.96777 38.5821 9.96777 39.217V40.9435C9.96777 41.5759 10.473 42.0944 11.0898 42.0944H13.8949C14.5113 42.0944 15.0169 41.5762 15.0169 40.9435V39.217C15.0169 38.5825 14.5117 38.0664 13.8949 38.0664Z" fill="#231F1F"></path><path fill-rule="evenodd" clip-rule="evenodd" d="M120.684 38.8699C120.868 38.8699 121.02 39.0259 121.02 39.217V40.9435C121.02 41.1324 120.868 41.2881 120.684 41.2881H117.879C117.693 41.2881 117.543 41.1321 117.543 40.9435V39.217C117.543 39.0263 117.693 38.8699 117.879 38.8699H120.684ZM120.684 38.0664H117.879C117.262 38.0664 116.757 38.5821 116.757 39.217V40.9435C116.757 41.5759 117.262 42.0944 117.879 42.0944H120.684C121.3 42.0944 121.806 41.5762 121.806 40.9435V39.217C121.806 38.5825 121.301 38.0664 120.684 38.0664Z" fill="#231F1F"></path><path fill-rule="evenodd" clip-rule="evenodd" d="M128.51 38.8699C128.694 38.8699 128.846 39.0259 128.846 39.217V40.9435C128.846 41.1324 128.694 41.2881 128.51 41.2881H125.705C125.519 41.2881 125.369 41.1321 125.369 40.9435V39.217C125.369 39.0263 125.518 38.8699 125.705 38.8699H128.51ZM128.51 38.0664H125.705C125.088 38.0664 124.583 38.5821 124.583 39.217V40.9435C124.583 41.5759 125.088 42.0944 125.705 42.0944H128.51C129.126 42.0944 129.632 41.5762 129.632 40.9435V39.217C129.632 38.5825 129.127 38.0664 128.51 38.0664Z" fill="#231F1F"></path><path fill-rule="evenodd" clip-rule="evenodd" d="M16.8424 42.1562V39.2378C16.8424 39.0439 16.9979 38.8854 17.1911 38.8854H20.8231V38.0703H17.1911C16.5512 38.0703 16.0264 38.5936 16.0264 39.2378V42.1562H16.842H16.8424Z" fill="#231F1F"></path><path fill-rule="evenodd" clip-rule="evenodd" d="M37.0388 42.1562V39.2378C37.0388 39.0439 37.1942 38.8854 37.3877 38.8854H41.0193V38.0703H37.3877C36.7478 38.0703 36.2227 38.5936 36.2227 39.2378V42.1562H37.0388Z" fill="#231F1F"></path><path fill-rule="evenodd" clip-rule="evenodd" d="M70.8093 38.0475H66.6859C66.0388 38.0475 65.5078 38.577 65.5078 39.2285V40.5267H69.9844V40.9999C69.9844 41.1941 69.8271 41.3537 69.6312 41.3537H65.5078V42.1806H69.6312C70.2789 42.1806 70.8093 41.6489 70.8093 40.9996V39.6992H66.3327V39.2282C66.3327 39.0321 66.4925 38.8716 66.6856 38.8716H70.809V38.0469L70.8093 38.0475Z" fill="#231F1F"></path><path fill-rule="evenodd" clip-rule="evenodd" d="M150.334 38.0475H146.21C145.563 38.0475 145.032 38.577 145.032 39.2285V40.5267H149.509V40.9999C149.509 41.1941 149.351 41.3537 149.156 41.3537H145.032V42.1806H149.156C149.803 42.1806 150.334 41.6489 150.334 40.9996V39.6992H145.857V39.2282C145.857 39.0321 146.017 38.8716 146.21 38.8716H150.333V38.0469L150.334 38.0475Z" fill="#231F1F"></path><path fill-rule="evenodd" clip-rule="evenodd" d="M88.9863 36.2802H89.8259V37.9635H91.3794V38.8026H89.8259V40.9675C89.8259 41.1649 89.986 41.3275 90.1853 41.3275H92.0159V42.1691H90.1853C89.5261 42.1691 88.9863 41.6281 88.9863 40.9672V36.2793V36.2802Z" fill="#231F1F"></path><path fill-rule="evenodd" clip-rule="evenodd" d="M44.6486 37.8893V40.9377C44.6486 41.1379 44.8137 41.303 45.0134 41.303H47.1418V42.1569H45.0134C44.3451 42.1569 43.7969 41.6077 43.7969 40.9374V37.8887H44.6486V37.8893ZM48.846 37.8893V42.6432C48.846 43.3134 48.2984 43.8626 47.6295 43.8626H45.5007V43.0088H47.6295C47.8292 43.0088 47.9942 42.8459 47.9942 42.6432V37.8893H48.846Z" fill="#231F1F"></path><path d="M29.713 57.4458L29.5648 57.0718L29.5561 57.0492C29.5491 57.0302 29.5421 57.0145 29.5352 56.997C28.6493 54.9869 27.7634 52.9784 26.8776 50.968C26.8043 50.7578 26.6317 50.7422 26.5811 50.7422C26.5463 50.7422 26.5096 50.7472 26.4747 50.7594C26.3806 50.7925 26.2951 50.8707 26.2533 50.9646C26.1504 51.196 26.0493 51.429 25.9464 51.662L26.5637 53.0566L26.8654 53.7384L27.0921 54.2529C27.1043 54.2792 27.4984 55.173 27.7861 55.8251H25.8452C25.6098 55.8251 25.4511 55.5834 25.547 55.3676L25.9237 54.5137L26.2254 53.8288L25.5976 52.4567C24.9995 53.8132 24.3612 55.2581 23.7631 56.6145L23.6986 56.7625C23.6689 56.8284 23.641 56.8944 23.6114 56.9623L23.4004 57.444H24.1293C24.2165 57.444 24.3037 57.444 24.3891 57.444H24.3961C24.5496 57.444 24.6664 57.3658 24.7292 57.225C24.771 57.1309 24.8129 57.0355 24.8547 56.9413H28.2831C28.311 57.0058 28.3371 57.0702 28.3633 57.1346C28.447 57.3414 28.5952 57.4474 28.8062 57.4474H29.7165V57.444L29.713 57.4458Z" fill="#231F1F"></path><path fill-rule="evenodd" clip-rule="evenodd" d="M118.09 57.461H117.004V53.5021C117.004 53.2394 116.797 53.0242 116.539 53.0242H112.665C112.41 53.0242 112.2 53.2391 112.2 53.5021V55.8778C112.2 56.1377 112.41 56.3519 112.665 56.3519H115.918V57.461H112.665C111.813 57.461 111.114 56.7479 111.114 55.8772V53.5018C111.114 52.6286 111.812 51.918 112.665 51.918H116.539C117.392 51.918 118.09 52.6279 118.09 53.5018V57.4603V57.461Z" fill="#231F1F"></path><path fill-rule="evenodd" clip-rule="evenodd" d="M83.9102 57.4603V56.3513H79.0168C78.7581 56.3513 78.5469 56.1367 78.5469 55.8772V53.5018C78.5469 53.2391 78.7581 53.0239 79.0168 53.0239H83.9102V51.918H79.0168C78.1572 51.918 77.458 52.6279 77.458 53.5018V55.8772C77.458 56.7473 78.1572 57.461 79.0168 57.461H83.9102V57.4603Z" fill="#231F1F"></path><path fill-rule="evenodd" clip-rule="evenodd" d="M92.9788 51.918H100.876C101.711 51.918 102.395 52.6279 102.395 53.5018V57.461H101.332V53.5018C101.332 53.2391 101.126 53.0239 100.876 53.0239H98.149C98.1927 53.1753 98.2186 53.3354 98.2186 53.5018V57.461H97.155V53.5018C97.155 53.2391 96.9493 53.0239 96.6997 53.0239H94.0421V57.461H92.9785V51.918H92.9788Z" fill="#231F1F"></path><path fill-rule="evenodd" clip-rule="evenodd" d="M119.136 51.918H123.901C124.732 51.918 125.413 52.6279 125.413 53.5018V57.461H124.354V53.5018C124.354 53.2391 124.149 53.0239 123.901 53.0239H120.195V57.461H119.136V51.918Z" fill="#231F1F"></path><path fill-rule="evenodd" clip-rule="evenodd" d="M90.3821 53.0239C90.6367 53.0239 90.8463 53.2384 90.8463 53.5018V55.8772C90.8463 56.1374 90.6361 56.3513 90.3821 56.3513H86.507C86.25 56.3513 86.0425 56.1367 86.0425 55.8772V53.5018C86.0425 53.2391 86.2493 53.0239 86.507 53.0239H90.3821ZM90.3821 51.918H86.507C85.655 51.918 84.957 52.6279 84.957 53.5018V55.8772C84.957 56.7473 85.655 57.461 86.507 57.461H90.3821C91.2338 57.461 91.9321 56.7479 91.9321 55.8772V53.5018C91.9321 52.6286 91.2342 51.918 90.3821 51.918Z" fill="#231F1F"></path><path fill-rule="evenodd" clip-rule="evenodd" d="M103.441 59.6065H104.473V53.488C104.473 53.2275 104.672 53.0145 104.914 53.0145H108.595C108.84 53.0145 109.037 53.2272 109.037 53.488V55.8421C109.037 56.0998 108.84 56.3122 108.595 56.3122H105.504V57.4112H108.595C109.404 57.4112 110.068 56.7044 110.068 55.8418V53.4874C110.068 52.622 109.405 51.918 108.595 51.918H104.914C104.104 51.918 103.441 52.6217 103.441 53.4874V59.6065Z" fill="#231F1F"></path><path fill-rule="evenodd" clip-rule="evenodd" d="M127.549 51.9186V55.9335C127.549 56.1971 127.759 56.4142 128.014 56.4142H130.734V57.5388H128.014C127.16 57.5388 126.46 56.8157 126.46 55.9328V51.918H127.549V51.9186ZM132.912 51.9186V58.1794C132.912 59.0623 132.212 59.7854 131.357 59.7854H128.637V58.6607H131.357C131.613 58.6607 131.824 58.4465 131.824 58.1794V51.9186H132.912Z" fill="#231F1F"></path><path d="M71.2446 53.9066C71.2166 53.8021 71.1835 53.698 71.1488 53.5988C71.1295 53.5432 71.1086 53.4875 71.0843 53.4337C71.0406 53.3346 70.9935 53.2404 70.9411 53.1607C70.439 52.3225 69.5233 51.7852 68.4666 51.7852C66.8485 51.7852 65.579 53.0493 65.5771 54.6613C65.5771 55.4385 65.8735 56.1653 66.4158 56.7064C66.9584 57.2471 67.6872 57.5461 68.4666 57.5461C68.9829 57.5461 69.4762 57.4157 69.9071 57.1705C69.9717 57.1339 70.0659 57.0629 70.1685 56.9794C70.4862 56.7202 70.4668 56.2297 70.1302 55.9952L69.8322 55.7881L69.67 55.9411C69.3474 56.2454 68.9218 56.4143 68.4685 56.4158H68.4631C67.9942 56.4158 67.558 56.2351 67.2339 55.9082C67.1415 55.816 67.0629 55.7134 66.9949 55.6055C66.9949 55.6055 66.9914 55.6002 66.9896 55.5967C66.9007 55.4507 66.8311 55.2924 66.7874 55.1238H66.7961C66.5415 54.209 67.0682 53.6145 67.0682 53.6145C67.3821 53.1885 67.8844 52.917 68.4631 52.9155H68.4666C69.2148 52.9155 69.86 53.3796 70.1043 54.058H67.7396C67.4307 54.058 67.1815 54.3047 67.178 54.6125C67.178 54.7692 67.1971 54.9396 67.2479 55.1238H70.2977C70.9361 55.1238 71.4084 54.5221 71.2412 53.9082L71.2446 53.9066Z" fill="#231F1F"></path><path d="M55.1234 56.2767L54.8794 56.349C54.8523 56.3568 54.8236 56.3649 54.7968 56.3746C54.7409 56.3921 54.6882 56.4081 54.6373 56.4209C54.4763 56.4625 54.3281 56.4819 54.1862 56.4819C54.0954 56.4819 54.0046 56.4738 53.9185 56.4563C53.6096 56.3953 53.4327 56.2161 53.3737 55.9086C53.3544 55.806 53.345 55.6922 53.3435 55.5705C53.3435 54.9028 53.3435 54.0893 53.3416 53.2677H54.3855C54.7393 53.2677 55.0261 52.9797 55.0261 52.624V52.2078H53.3416C53.3416 52.1164 53.3416 52.0251 53.3416 51.9354V50.7422H52.9257C52.5722 50.7422 52.2852 51.0305 52.2852 51.3862V52.1099C52.2852 53.2661 52.2852 54.5938 52.2852 55.5818C52.2852 55.9164 52.3363 56.2032 52.443 56.4563C52.6518 56.9542 53.0293 57.2857 53.565 57.4411C53.7578 57.4971 53.9584 57.5243 54.1799 57.5243C54.2707 57.5243 54.3631 57.5196 54.4604 57.5099C54.5384 57.5018 54.6595 57.4746 54.7902 57.4396C55.1234 57.3482 55.3194 57.0023 55.227 56.6677L55.1184 56.2752L55.1234 56.2767Z" fill="#231F1F"></path><path fill-rule="evenodd" clip-rule="evenodd" d="M47.9325 53.4187C47.9325 53.1475 47.715 52.9258 47.4445 52.9258H43.3757C43.1084 52.9258 42.8878 53.1472 42.8878 53.4187V55.8679C42.8878 56.1362 43.1084 56.357 43.3757 56.357H46.7956V57.5005H43.3757C42.4816 57.5005 41.748 56.7652 41.748 55.8676V53.4181C41.748 52.5176 42.4809 51.7852 43.3757 51.7852H47.4445C48.3387 51.7852 49.0722 52.517 49.0722 53.4181V58.1513C49.0722 59.0489 48.3394 59.7842 47.4445 59.7842H44.0281V58.6408H47.4445C47.7147 58.6408 47.9325 58.4228 47.9325 58.1513V53.4181V53.4187Z" fill="#FAA819"></path><path d="M38.5353 50.9403V49.8625V49.5254H37.8707C37.5644 49.5254 37.3145 49.7731 37.3145 50.0802V52.5898C37.3145 52.8206 37.4339 53.0311 37.628 53.1559C37.9528 53.3642 38.287 53.9694 38.5353 54.3659C38.5353 53.8596 38.5353 51.4376 38.5353 50.9403Z" fill="#231F1F"></path><path d="M36.127 51.456C35.9067 51.4131 35.6864 51.3906 35.4736 51.3906C34.8874 51.3906 34.3367 51.5564 33.8363 51.8823C33.1121 52.3533 32.6675 53.0254 32.5184 53.8817C32.3783 54.6821 32.5296 55.423 32.9664 56.0857C33.4406 56.8026 34.1108 57.242 34.9619 57.3909C35.1545 57.4243 35.3466 57.4412 35.5332 57.4412C36.1232 57.4412 36.6758 57.2736 37.1781 56.9424C37.8929 56.4714 38.3315 55.8011 38.4829 54.9501C38.5147 54.7697 38.5315 54.5723 38.5315 54.3471C38.5315 54.3118 38.5315 54.2746 38.5315 54.2392C38.5128 51.9755 36.1251 51.456 36.1251 51.456H36.127ZM35.5089 56.2421H35.4995C34.484 56.2421 33.6849 55.4436 33.6815 54.4216C33.6815 53.9227 33.8662 53.4592 34.2097 53.1164C34.5495 52.7758 35.0087 52.5879 35.5014 52.586H35.5051C36.517 52.586 37.3122 53.3882 37.316 54.4122C37.3179 55.4324 36.5244 56.2368 35.5089 56.2406V56.2421Z" fill="#231F1F"></path><path d="M64.5314 50.9403V49.8625V49.5254H63.8668C63.5605 49.5254 63.3105 49.7731 63.3105 50.0802V52.5898C63.3105 52.8206 63.4297 53.0311 63.6241 53.1559C63.9489 53.3642 64.283 53.9694 64.5314 54.3659C64.5314 53.8596 64.5314 51.4373 64.5314 50.9403Z" fill="#231F1F"></path><path d="M62.123 51.456C61.9028 51.4131 61.6825 51.3906 61.4697 51.3906C60.8835 51.3906 60.3328 51.5564 59.8323 51.8823C59.1079 52.3533 58.6636 53.0254 58.5145 53.8817C58.3744 54.6821 58.5257 55.423 58.9625 56.0857C59.4364 56.8026 60.1069 57.242 60.958 57.3909C61.1502 57.4243 61.3427 57.4412 61.5293 57.4412C62.1193 57.4412 62.6719 57.2736 63.1739 56.9424C63.889 56.4714 64.3276 55.8011 64.479 54.9501C64.5108 54.7697 64.5276 54.5723 64.5276 54.3471C64.5276 54.3118 64.5276 54.2746 64.5276 54.2392C64.5089 51.9752 62.1212 51.456 62.1212 51.456H62.123ZM61.505 56.2421H61.4956C60.4801 56.2421 59.681 55.4436 59.6773 54.4216C59.6773 53.9227 59.8623 53.4592 60.2058 53.1164C60.5456 52.7758 61.0048 52.5879 61.4975 52.586H61.5012C62.513 52.586 63.3083 53.3882 63.3121 54.4122C63.314 55.4324 62.5205 56.2368 61.505 56.2402V56.2421Z" fill="#231F1F"></path><path d="M39.582 52.6598V57.5238H40.7027V52.0762H40.167C39.8438 52.0762 39.582 52.3373 39.582 52.6598Z" fill="#231F1F"></path><path d="M39.582 50.7036V51.4014H40.2185C40.4853 51.4014 40.7009 51.1865 40.7009 50.9203V50.2207H40.0644C39.7976 50.2207 39.582 50.4359 39.582 50.702V50.7036Z" fill="#FAA819"></path><path d="M50.1191 52.6598V57.5238H51.2398V52.0762H50.7045C50.3809 52.0762 50.1191 52.3373 50.1191 52.6598Z" fill="#231F1F"></path><path d="M50.1191 50.7036V51.4014H50.7556C51.0227 51.4014 51.2383 51.1865 51.2383 50.9203V50.2207H50.6018C50.3347 50.2207 50.1191 50.4359 50.1191 50.702V50.7036Z" fill="#FAA819"></path><path d="M56.2969 52.6598V57.5238H57.4173V52.0762H56.8819C56.5583 52.0762 56.2969 52.3373 56.2969 52.6598Z" fill="#231F1F"></path><path d="M56.2969 50.7036V51.4014H56.933C57.2001 51.4014 57.4157 51.1865 57.4157 50.9203V50.2207H56.7792C56.5122 50.2207 56.2969 50.4359 56.2969 50.702V50.7036Z" fill="#FAA819"></path><path d="M141.965 9.2302V7.49756C141.965 6.60911 141.242 5.88867 140.352 5.88867H139.053V12.6292C139.625 11.5817 140.436 10.8745 141.269 10.4104C141.699 10.1717 141.943 10.3087 141.965 9.2302Z" fill="#231F1F"></path><path d="M150.643 23.2728V23.0386V21.0938C150.643 19.3655 150.643 17.6417 150.643 15.9135C150.643 15.2328 150.568 14.6228 150.408 14.0571C149.907 12.2758 148.773 11.1266 147.031 10.6492C146.49 10.499 145.918 10.4238 145.329 10.4238C144.983 10.4238 144.624 10.4503 144.256 10.5034C143.684 10.5918 142.997 10.7818 142.31 11.1266C142.19 11.1929 142.075 11.2636 141.96 11.3388V11.3167C140.448 12.2007 139.048 13.8847 139.048 16.9787V23.4983C139.048 24.2276 139.642 24.8199 140.373 24.8199H141.969V22.0441C141.969 20.2938 141.969 18.5434 141.969 16.7931C141.969 16.3069 142.04 15.8295 142.173 15.3787C142.447 14.4505 142.939 13.8714 143.715 13.5576C144.376 13.2924 145.103 13.2305 145.869 13.3808C146.698 13.54 147.239 13.9864 147.527 14.7555C147.656 15.1046 147.718 15.5069 147.718 16.0151V23.5027C147.718 24.232 148.311 24.8243 149.043 24.8243H150.603H150.639V24.011V23.2861L150.643 23.2728Z" fill="#231F1F"></path><path d="M139.062 16.2755V12.5185L139.726 10.7504L141.943 8.98242V11.4135C140.225 12.4331 139.611 13.5333 139.062 16.2755Z" fill="#231F1F"></path><path fill-rule="evenodd" clip-rule="evenodd" d="M136.764 24.8625V22.129H124.257C123.596 22.129 123.056 21.5999 123.056 20.9602V15.1048C123.056 14.4572 123.596 13.9269 124.257 13.9269H136.764V11.2012H124.257C122.06 11.2012 120.272 12.951 120.272 15.1048V20.9602C120.272 23.1048 122.06 24.8638 124.257 24.8638H136.764V24.8625Z" fill="#FAA819"></path><path d="M117.913 15.5934C117.842 15.3276 117.758 15.0618 117.669 14.8093C117.62 14.6676 117.567 14.5259 117.506 14.3886C117.395 14.1361 117.275 13.8969 117.142 13.6931C115.868 11.5581 113.544 10.1895 110.862 10.1895C106.755 10.1895 103.533 13.4097 103.528 17.5157C103.528 19.4957 104.281 21.3472 105.657 22.7247C107.034 24.1023 108.884 24.8641 110.862 24.8641C112.172 24.8641 113.425 24.5319 114.518 23.9074C114.682 23.8144 114.921 23.6328 115.182 23.4201C115.987 22.7602 115.939 21.5111 115.084 20.9131L114.328 20.386L113.916 20.7758C113.097 21.551 112.017 21.9806 110.867 21.985H110.853C109.663 21.985 108.556 21.5244 107.733 20.6916C107.498 20.4569 107.299 20.1955 107.127 19.9209C107.127 19.9209 107.118 19.9076 107.113 19.8987C106.888 19.5267 106.71 19.1236 106.6 18.6939H106.622C105.976 16.3641 107.313 14.8492 107.313 14.8492C108.109 13.764 109.384 13.073 110.853 13.0686H110.862C112.761 13.0686 114.398 14.2512 115.018 15.9787H109.016C108.233 15.9787 107.6 16.6077 107.591 17.3917C107.591 17.7904 107.64 18.2244 107.768 18.6939H115.509C117.129 18.6939 118.329 17.1614 117.904 15.5978L117.913 15.5934Z" fill="#231F1F"></path><path d="M100.887 21.3741L100.198 21.5757C100.122 21.5981 100.041 21.6205 99.9641 21.6474C99.8065 21.6967 99.658 21.7415 99.5142 21.7773C99.0596 21.8938 98.6409 21.9476 98.2403 21.9476C97.9838 21.9476 97.7274 21.9252 97.4843 21.8759C96.611 21.7056 96.1115 21.2038 95.9452 20.3435C95.8909 20.0567 95.8641 19.7386 95.8594 19.3981C95.8594 17.5296 95.8594 15.2534 95.8551 12.9548H98.8028C99.8022 12.9548 100.612 12.1482 100.612 11.1535V9.98851H95.8551C95.8551 9.73311 95.8551 9.47772 95.8551 9.22679V5.88867H94.6804C93.6814 5.88867 92.8711 6.69518 92.8711 7.6899V9.71519C92.8711 12.9503 92.8711 16.6648 92.8711 19.4294C92.8711 20.3659 93.0152 21.168 93.3166 21.8759C93.9063 23.2694 94.973 24.1969 96.4853 24.6316C97.0297 24.7884 97.5966 24.8646 98.2225 24.8646C98.479 24.8646 98.7398 24.8511 99.0144 24.8242C99.235 24.8018 99.5769 24.7257 99.946 24.6271C100.887 24.3717 101.44 23.4038 101.179 22.4674L100.873 21.3696L100.887 21.3741Z" fill="#231F1F"></path><path d="M76.2842 12.2269V24.8642H79.1958V10.7109H77.8046C76.9643 10.7109 76.2842 11.3891 76.2842 12.2269Z" fill="#231F1F"></path><path d="M76.2842 7.14308V8.95601H77.9378C78.6314 8.95601 79.1914 8.39752 79.1914 7.70601V5.88867H77.5378C76.8445 5.88867 76.2842 6.44716 76.2842 7.13864V7.14308Z" fill="#FAA819"></path><path fill-rule="evenodd" clip-rule="evenodd" d="M70.6117 14.7771C70.6117 14.1002 70.0622 13.5459 69.378 13.5459H59.0882C58.4125 13.5459 57.8546 14.0989 57.8546 14.7771V20.8977C57.8546 21.5678 58.4125 22.1194 59.0882 22.1194H67.7363V24.9767H59.0882C56.8272 24.9767 54.9727 23.1395 54.9727 20.8964V14.7758C54.9727 12.5258 56.8256 10.6953 59.0882 10.6953H69.378C71.6394 10.6953 73.4939 12.5245 73.4939 14.7758V26.6029C73.4939 28.846 71.6406 30.6833 69.378 30.6833H60.7384V27.8259H69.378C70.061 27.8259 70.6117 27.2811 70.6117 26.6029V14.7758V14.7771Z" fill="#FAA819"></path><path d="M49.2705 12.2269V24.8642H52.1818V10.7109H50.7906C49.9504 10.7109 49.2705 11.3891 49.2705 12.2269Z" fill="#231F1F"></path><path d="M49.2705 7.14308V8.95601H50.9241C51.6174 8.95601 52.1774 8.39752 52.1774 7.70601V5.88867H50.5238C49.8305 5.88867 49.2705 6.44716 49.2705 7.13864V7.14308Z" fill="#FAA819"></path><path d="M46.4792 9.7111V7.1844V6.39453H44.921C44.2034 6.39453 43.6172 6.97491 43.6172 7.69498V13.5776C43.6172 14.1187 43.8971 14.6118 44.3523 14.9042C45.1135 15.393 45.897 16.8113 46.4792 17.7408C46.4792 16.5538 46.4792 10.8763 46.4792 9.7111Z" fill="#231F1F"></path><path d="M40.8336 10.9203C40.3173 10.82 39.8009 10.7676 39.302 10.7676C37.9276 10.7676 36.6369 11.156 35.4641 11.9196C33.7662 13.0237 32.7244 14.5991 32.3744 16.6065C32.0461 18.483 32.4009 20.2199 33.4249 21.7734C34.5362 23.4536 36.1074 24.4835 38.1027 24.8326C38.5535 24.9111 39.0044 24.9504 39.4418 24.9504C40.8249 24.9504 42.12 24.5576 43.2972 23.7808C44.9732 22.6768 46.0016 21.1058 46.3563 19.1114C46.4306 18.6881 46.4699 18.2256 46.4699 17.6975C46.4699 17.6146 46.4699 17.5273 46.4699 17.4444C46.4262 12.1379 40.8292 10.9203 40.8292 10.9203H40.8336ZM39.385 22.14H39.3632C36.9826 22.14 35.1097 20.2679 35.1009 17.8721C35.1009 16.7026 35.534 15.6159 36.3393 14.813C37.1358 14.0143 38.2122 13.5736 39.3675 13.5692H39.3763C41.7481 13.5692 43.6123 15.4501 43.621 17.8502C43.6254 20.2417 41.7656 22.1269 39.385 22.1356V22.14Z" fill="#231F1F"></path><path d="M20.585 7.47294V24.8646H21.9798C22.8927 24.8646 23.6296 24.1545 23.6296 23.2847V5.88867H22.2347C21.3218 5.88867 20.585 6.59869 20.585 7.4685V7.47294Z" fill="#231F1F"></path><path d="M26.4209 7.47294V24.8646H27.8158C28.7287 24.8646 29.4655 24.1545 29.4655 23.2847V5.88867H28.0707C27.1577 5.88867 26.4209 6.59869 26.4209 7.4685V7.47294Z" fill="#231F1F"></path><path d="M14.9486 18.002V21.9798L14.5074 22.0021H12.2702C11.6746 22.0021 11.0745 22.0021 10.4788 22.0021C10.1655 22.0021 9.89632 21.9441 9.65805 21.8282C8.96971 21.4893 8.52845 20.7668 8.53288 19.9909C8.54168 19.2239 8.98294 18.5104 9.65805 18.1759C9.89632 18.06 10.1655 18.002 10.4788 18.002C11.0745 18.002 11.6746 18.002 12.2702 18.002H13.7264H16.4489C17.1902 18.002 17.7947 17.3955 17.7947 16.6419V14.0688C17.7947 13.9886 17.7903 13.9083 17.777 13.8325C17.424 11.8703 15.7341 10.4434 13.7661 10.4434H10.7612C9.98898 10.4434 9.36683 11.0766 9.36683 11.8525V13.3197H13.7661C14.2779 13.3197 14.7412 13.6452 14.9221 14.1268C14.9442 14.1803 14.953 14.2339 14.953 14.2918V15.1391H14.4324C13.8808 15.1391 13.3292 15.1391 12.7821 15.1391C11.8466 15.1391 11.0789 15.1391 10.3729 15.1436C9.16384 15.1525 8.09162 15.585 7.19147 16.4279C6.13688 17.4045 5.62504 18.5461 5.61621 19.924V19.9775C5.61621 21.3867 6.14131 22.5997 7.18707 23.5763C8.09162 24.4191 9.15944 24.8516 10.3685 24.8606C11.0745 24.865 11.8422 24.865 12.7865 24.865C13.2939 24.865 13.797 24.865 14.3044 24.865H15.1075H17.7947V16.6865C17.7947 16.6865 17.7505 17.3554 17.0887 17.5784C16.4268 17.8013 14.9486 18.002 14.9486 18.002Z" fill="#231F1F"></path></svg>